<svg xmlns="http://www.w3.org/2000/svg" width="270" height="120" viewBox="0 0 270 120" role="img" aria-labelledby="title">
  <title id="title">Yamdy logo</title>
  <path fill="#128a4c" fill-rule="evenodd" d="M127.288,106.277 C126.803,105.972 127.033,105.186 127.706,104.850 C129.169,104.120 130.275,102.354 129.549,101.905 C129.439,101.837 128.852,101.892 128.246,102.029 C127.640,102.165 126.705,102.202 126.168,102.111 C124.919,101.900 123.343,100.499 122.988,99.285 C122.841,98.783 122.756,96.975 122.798,95.250 L122.875,92.125 123.500,92.125 L124.125,92.125 124.250,95.388 C124.390,99.047 124.640,99.717 126.128,100.427 C126.922,100.806 127.048,100.804 127.929,100.401 C129.591,99.641 129.805,99.111 129.792,95.792 C129.786,94.188 129.838,92.678 129.907,92.438 C130.044,91.964 130.872,91.840 131.128,92.255 C131.392,92.682 131.254,103.207 130.975,103.943 C130.657,104.782 129.794,105.739 129.125,105.993 C128.011,106.417 127.609,106.479 127.288,106.277 Z M182.000,105.642 C182.000,105.260 182.180,104.977 182.485,104.880 C183.142,104.671 184.500,103.089 184.500,102.533 C184.500,101.854 184.336,101.798 183.055,102.042 C181.330,102.369 180.091,102.081 179.004,101.098 C177.738,99.956 177.460,98.810 177.551,95.125 L177.625,92.125 178.250,92.125 L178.875,92.125 179.000,95.584 L179.125,99.042 179.936,99.766 C181.051,100.762 181.838,100.915 182.913,100.344 C184.350,99.580 184.622,98.801 184.643,95.391 C184.658,92.902 184.730,92.363 185.074,92.146 C185.984,91.573 186.090,92.232 186.028,98.056 C185.969,103.611 185.967,103.627 185.313,104.580 C184.587,105.638 183.607,106.250 182.637,106.250 C182.129,106.250 182.000,106.127 182.000,105.642 Z M137.625,102.009 C137.350,101.894 136.664,101.401 136.101,100.913 C135.321,100.238 134.982,99.693 134.678,98.622 C134.458,97.850 134.323,97.084 134.377,96.921 C134.431,96.758 134.592,96.169 134.734,95.612 C135.233,93.657 137.412,92.000 139.483,92.000 C140.784,92.000 142.489,92.783 143.417,93.806 C144.296,94.776 144.750,96.628 144.750,99.245 C144.750,101.664 144.561,102.250 143.782,102.250 C143.580,102.250 143.212,102.067 142.965,101.843 C142.549,101.467 142.450,101.467 141.657,101.843 C140.752,102.272 138.478,102.366 137.625,102.009 Z M148.300,101.950 C148.096,101.746 148.000,100.570 148.000,98.292 C148.000,94.537 148.205,93.916 149.862,92.652 C150.892,91.866 152.652,91.766 153.774,92.429 C154.460,92.834 154.540,92.834 155.226,92.429 C156.321,91.782 157.979,91.872 159.012,92.634 C160.511,93.740 160.728,94.449 160.740,98.282 C160.751,101.929 160.579,102.467 159.512,102.129 C159.027,101.975 159.000,101.775 159.000,98.358 C159.000,95.083 158.954,94.704 158.500,94.250 C157.950,93.700 156.540,93.577 155.734,94.009 C155.289,94.247 155.250,94.565 155.250,97.978 C155.250,100.972 155.178,101.749 154.875,102.000 C154.576,102.248 154.424,102.248 154.125,102.000 C153.824,101.750 153.750,100.986 153.750,98.109 C153.750,94.692 153.725,94.511 153.194,94.139 C152.889,93.925 152.295,93.750 151.875,93.750 C151.455,93.750 150.861,93.925 150.556,94.139 C150.026,94.510 150.000,94.693 150.000,98.089 C150.000,101.722 149.873,102.250 149.000,102.250 C148.780,102.250 148.465,102.115 148.300,101.950 Z M166.625,102.081 C165.083,101.648 163.000,98.841 163.000,97.195 C163.000,95.601 164.528,93.469 166.414,92.433 C167.516,91.828 169.360,91.873 170.426,92.532 C171.018,92.897 171.367,92.983 171.545,92.805 C171.687,92.663 171.819,91.529 171.839,90.286 C171.876,87.955 172.126,87.303 172.871,87.589 C173.231,87.727 173.267,88.388 173.200,93.570 C173.126,99.349 173.120,99.402 172.507,100.142 C171.190,101.731 170.571,102.064 168.794,102.145 C167.876,102.187 166.900,102.158 166.625,102.081 Z M141.837,100.137 C143.274,99.041 143.631,96.663 142.600,95.062 C142.071,94.239 140.377,93.250 139.500,93.250 C138.726,93.250 137.145,94.098 136.524,94.846 C136.001,95.476 135.747,97.250 136.027,98.321 C136.262,99.221 137.306,100.411 138.208,100.808 C139.070,101.188 140.904,100.849 141.837,100.137 Z M169.995,100.562 C171.909,99.601 172.651,96.856 171.466,95.126 C170.817,94.180 169.272,93.250 168.347,93.250 C167.271,93.250 165.562,94.399 165.000,95.501 C164.396,96.683 164.373,97.386 164.897,98.638 C165.754,100.690 168.031,101.549 169.995,100.562 Z M62.628,97.188 C61.129,96.206 60.036,94.387 60.014,92.837 C60.006,92.252 60.248,91.271 60.569,90.587 C61.137,89.376 62.236,88.008 62.654,87.992 C62.775,87.987 63.325,87.766 63.875,87.500 C64.425,87.234 65.115,87.013 65.407,87.008 C66.229,86.995 68.573,88.159 69.281,88.932 C71.223,91.049 71.521,93.087 70.188,95.117 C69.741,95.798 68.888,96.725 68.293,97.177 C67.319,97.918 67.044,98.000 65.540,98.000 C64.076,98.000 63.715,97.899 62.628,97.188 Z M75.626,97.051 C74.161,95.942 73.035,94.054 73.014,92.672 C72.999,91.641 73.972,89.329 74.699,88.671 C75.606,87.850 77.540,87.000 78.500,87.000 C79.530,87.000 81.316,87.816 82.181,88.681 C82.465,88.965 82.990,89.781 83.349,90.494 C84.160,92.110 84.188,93.549 83.430,94.764 C82.691,95.949 81.844,97.000 81.628,97.000 C81.532,97.000 81.168,97.225 80.818,97.500 C80.328,97.886 79.805,98.000 78.529,97.999 C77.003,97.998 76.779,97.924 75.626,97.051 Z M221.688,97.245 C221.001,96.814 220.186,95.999 219.755,95.312 C219.125,94.309 219.009,93.869 219.005,92.475 C219.001,91.051 219.098,90.692 219.713,89.850 C221.000,88.091 222.754,87.000 224.293,87.000 C225.381,87.000 226.938,87.713 228.068,88.731 C228.846,89.430 230.000,91.760 230.000,92.630 C230.000,93.837 228.142,97.000 227.433,97.000 C227.307,97.000 226.918,97.225 226.568,97.500 C226.088,97.878 225.559,97.999 224.404,97.995 C223.144,97.991 222.666,97.859 221.688,97.245 Z M234.941,97.247 C234.290,96.838 233.365,95.969 232.885,95.314 C232.100,94.244 232.012,93.962 232.012,92.500 C232.012,91.038 232.100,90.756 232.885,89.686 C235.185,86.550 238.434,86.120 241.190,88.587 C241.906,89.227 243.000,91.593 243.000,92.500 C243.000,93.407 241.906,95.773 241.190,96.413 C239.163,98.227 236.968,98.520 234.941,97.247 Z M191.750,86.482 C190.856,86.236 189.759,86.026 189.312,86.017 C188.864,86.008 188.078,85.775 187.565,85.500 C187.052,85.225 186.440,85.000 186.204,85.000 C185.741,85.000 184.282,84.264 182.502,83.131 C181.884,82.738 180.603,81.648 179.656,80.708 C178.709,79.769 177.741,79.000 177.506,79.000 C177.270,79.000 176.874,79.225 176.625,79.500 C176.376,79.775 176.015,80.000 175.823,80.000 C175.631,80.000 175.058,80.211 174.550,80.470 C174.041,80.728 173.062,81.149 172.375,81.405 C171.189,81.847 169.923,81.871 147.500,81.873 L123.875,81.875 123.875,75.500 L123.875,69.125 134.000,69.000 L144.125,68.875 144.056,68.020 C144.018,67.550 143.827,66.875 143.631,66.520 C143.436,66.165 143.163,65.628 143.024,65.326 C142.508,64.200 139.627,61.589 138.023,60.794 C137.141,60.357 136.211,60.000 135.956,60.000 C135.220,60.000 132.404,59.195 132.093,58.896 C131.746,58.563 131.397,47.287 131.718,46.788 C131.837,46.603 132.203,46.444 132.530,46.435 C133.961,46.394 138.477,47.099 139.546,47.529 C140.191,47.788 140.960,48.000 141.257,48.000 C141.553,48.000 142.082,48.225 142.432,48.500 C142.781,48.775 143.215,49.000 143.395,49.000 C143.944,49.000 145.869,50.104 148.500,51.928 C149.565,52.666 152.484,55.558 153.492,56.873 C154.515,58.208 155.319,59.484 155.779,60.500 C155.934,60.844 156.272,61.534 156.531,62.034 C156.789,62.534 157.004,63.153 157.008,63.409 C157.013,63.665 157.234,64.325 157.500,64.875 C157.766,65.425 157.987,66.361 157.992,66.954 C158.008,69.056 157.858,69.000 163.524,69.000 C168.331,69.000 168.583,68.975 169.837,68.382 C172.213,67.258 173.577,65.786 175.638,62.125 C176.637,60.351 178.602,57.909 179.787,56.971 C181.239,55.821 182.483,55.000 182.774,55.000 C182.913,55.000 183.442,54.782 183.950,54.517 C185.405,53.756 188.676,53.165 190.522,53.329 C192.820,53.533 195.341,54.111 196.024,54.589 C196.347,54.815 196.794,55.000 197.017,55.000 C197.240,55.000 197.626,55.225 197.875,55.500 C198.124,55.775 198.451,56.001 198.601,56.001 C199.124,56.003 201.898,58.703 202.946,60.230 C203.526,61.074 204.000,61.834 204.000,61.917 C204.000,62.000 204.524,62.869 205.164,63.847 C206.574,66.000 207.957,67.408 209.625,68.389 L210.875,69.125 226.541,69.125 C235.157,69.125 242.268,69.186 242.343,69.261 C242.418,69.335 242.603,72.129 242.754,75.468 C242.968,80.224 242.961,81.621 242.721,81.910 C242.456,82.230 240.191,82.268 225.645,82.202 L208.875,82.125 207.879,81.562 C207.331,81.253 206.712,80.999 206.504,80.998 C206.295,80.997 205.787,80.773 205.375,80.500 C203.938,79.548 203.000,79.968 203.000,81.562 C203.000,82.092 202.841,82.833 202.646,83.209 C202.452,83.585 202.220,84.338 202.132,84.884 C201.749,87.245 202.277,87.004 197.558,86.965 C194.393,86.939 192.979,86.821 191.750,86.482 Z M30.113,81.683 C30.046,81.508 30.021,78.611 30.058,75.245 L30.125,69.125 66.500,69.000 C102.734,68.875 102.875,68.873 102.947,68.371 C102.992,68.057 102.680,67.538 102.121,66.996 L101.223,66.125 92.058,66.053 C85.211,66.000 82.845,65.905 82.700,65.678 C82.393,65.195 82.498,58.377 82.857,55.500 C83.037,54.056 83.368,52.457 83.592,51.946 C83.817,51.434 84.000,50.816 83.999,50.571 C83.999,50.179 84.671,48.585 85.294,47.500 C85.412,47.294 85.648,46.842 85.817,46.496 C87.179,43.712 91.143,39.227 93.922,37.327 C95.568,36.201 96.979,35.332 97.500,35.125 C97.706,35.042 98.291,34.756 98.800,34.488 C99.308,34.219 99.928,34.000 100.178,34.000 C100.428,34.000 101.052,33.775 101.565,33.500 C102.078,33.225 102.864,32.996 103.312,32.991 C103.759,32.986 104.856,32.822 105.750,32.625 C107.922,32.147 108.909,32.153 109.098,32.645 C109.182,32.863 109.250,35.662 109.250,38.865 C109.250,43.468 109.179,44.748 108.910,44.971 C108.466,45.340 106.297,45.993 105.500,45.999 C105.156,46.001 104.537,46.227 104.125,46.500 C103.713,46.773 103.227,46.997 103.046,46.998 C102.038,47.003 97.638,51.605 97.805,52.481 C97.865,52.794 98.365,52.904 100.252,53.018 C102.737,53.167 106.132,53.964 107.065,54.617 C107.365,54.828 107.751,55.000 107.923,55.000 C108.506,55.000 111.303,57.104 112.466,58.417 C113.662,59.768 114.560,61.364 115.466,63.750 C115.954,65.037 115.989,65.639 116.004,73.125 C116.012,77.525 116.015,81.322 116.010,81.562 C116.001,81.977 113.788,82.000 73.117,82.000 C38.701,82.000 30.210,81.937 30.113,81.683 Z M194.601,73.484 C194.734,73.360 194.657,72.828 194.413,72.191 C194.186,71.595 194.000,70.857 194.000,70.550 C194.000,70.243 193.650,69.373 193.223,68.616 C192.391,67.141 190.856,66.000 189.703,66.000 C188.990,66.000 187.343,67.110 186.539,68.132 C185.788,69.087 185.818,70.492 186.606,71.232 C187.294,71.879 189.587,73.000 190.222,73.000 C190.454,73.000 191.259,73.220 192.010,73.489 C193.306,73.953 194.098,73.952 194.601,73.484 Z M186.543,44.224 C185.963,43.797 185.153,42.961 184.744,42.367 C184.080,41.402 184.000,41.082 184.000,39.405 C184.000,37.742 184.084,37.401 184.727,36.450 C185.824,34.829 186.554,34.257 188.031,33.861 C190.504,33.199 193.030,34.083 194.442,36.104 C195.065,36.997 195.125,37.283 195.125,39.372 C195.125,41.399 195.053,41.769 194.500,42.595 C194.156,43.109 193.391,43.860 192.800,44.264 C191.824,44.932 191.535,45.000 189.662,45.000 C187.747,45.000 187.522,44.944 186.543,44.224 Z M191.116,41.224 C191.879,40.555 192.000,40.296 192.000,39.338 C192.000,37.797 191.201,37.000 189.654,37.000 C188.512,37.000 188.083,37.259 187.336,38.400 C186.833,39.167 187.084,40.253 187.950,41.059 C189.199,42.222 189.936,42.261 191.116,41.224 Z"/>
</svg>
